<?xml version="1.0" standalone="no"?>
<!DOCTYPE svg PUBLIC "-//W3C//DTD SVG 20010904//EN"
 "http://www.w3.org/TR/2001/REC-SVG-20010904/DTD/svg10.dtd">
<svg version="1.0" xmlns="http://www.w3.org/2000/svg"
 width="512.000000pt" height="512.000000pt" viewBox="0 0 512.000000 512.000000"
 preserveAspectRatio="xMidYMid meet">

<g transform="translate(0.000000,512.000000) scale(0.100000,-0.100000)"
fill="#000000" stroke="none">
<path d="M1014 4261 c-96 -24 -158 -105 -158 -205 0 -38 7 -74 18 -96 10 -19
325 -342 699 -718 l682 -682 -682 -683 c-374 -375 -689 -698 -699 -717 -11
-22 -18 -58 -18 -96 0 -122 86 -208 208 -208 38 0 74 7 96 18 19 10 342 325
717 699 l683 682 682 -682 c376 -374 699 -689 718 -699 22 -11 58 -18 96 -18
122 0 208 86 208 208 0 38 -7 74 -18 96 -10 19 -325 342 -699 717 l-682 683
682 682 c374 376 689 699 699 718 11 22 18 58 18 96 0 122 -86 208 -208 208
-38 0 -74 -7 -96 -18 -19 -10 -342 -325 -717 -699 l-683 -682 -682 682 c-376
374 -697 688 -713 696 -39 19 -111 28 -151 18z"/>
</g>
</svg>
